<svg width="107" height="74" viewBox="0 0 107 74" fill="none" xmlns="http://www.w3.org/2000/svg">
<g clip-path="url(#clip0_2867_489)">
<path d="M85.2208 46.8299V54.8499L99.4608 47.7299V29.6799L82.3708 36.6199L65.2808 29.6799L82.3708 23.1699L89.1208 25.6599" stroke="white" stroke-width="1.93" stroke-linecap="round" stroke-linejoin="round"/>
<path d="M34.1009 40.6735C26.5582 40.6735 20.4473 34.5785 20.4473 27.0518C20.4473 19.5251 26.5502 13.4302 34.1009 13.4302C41.6516 13.4302 47.7545 19.5251 47.7545 27.0518C47.7545 34.5785 41.6436 40.6735 34.1009 40.6735Z" stroke="white" stroke-width="2.37" stroke-linecap="round" stroke-linejoin="round"/>
<path d="M55.1909 63.7898H15.1809C12.8409 63.9298 10.8309 62.1498 10.6809 59.8098C10.6809 59.6398 10.6809 59.4698 10.6809 59.2998C10.6809 56.8298 12.7009 54.8198 15.1809 54.8098H54.9309L61.3809 54.9298V66.4898H64.6109V69.2598C64.5809 71.2098 62.9709 72.7698 61.0109 72.7398H14.7009C7.38087 72.5998 1.57087 66.5798 1.70087 59.2898V13.9798C1.83087 6.6798 7.87087 0.869802 15.1809 1.0098H61.0209C63.2609 1.0098 64.6209 2.3598 64.6209 4.5998C64.6209 4.5998 64.6209 20.3398 64.6209 23.5498C69.3609 21.8198 80.8709 17.6398 80.8709 17.6398C81.8409 17.2698 82.9009 17.2798 83.8709 17.6398L102.391 24.5798C103.201 24.8898 103.901 25.4298 104.401 26.1498C104.891 26.8598 105.161 27.7098 105.161 28.5798V48.6198C105.161 49.4098 104.941 50.1898 104.521 50.8598C104.101 51.5298 103.511 52.0798 102.801 52.4298L84.2909 61.6898C83.7009 61.9898 83.0409 62.1398 82.3809 62.1398C81.7209 62.1398 81.0609 61.9798 80.4709 61.6898L64.6309 52.4498" stroke="white" stroke-width="2.37" stroke-miterlimit="10"/>
</g>
<defs>
<clipPath id="clip0_2867_489">
<rect width="105.47" height="73.76" fill="white" transform="translate(0.690918)"/>
</clipPath>
</defs>
</svg>
