<svg width="86" height="70" viewBox="0 0 86 70" fill="none" xmlns="http://www.w3.org/2000/svg">
<path d="M45.3599 26.4785H28.9004V44.3811H45.3599V26.4785Z" stroke="white" stroke-width="2.37097" stroke-linecap="round" stroke-linejoin="round"/>
<path d="M51.2221 29.1503L53.2401 25.3506L57.2761 32.9494H49.207L51.2221 29.1503Z" stroke="white" stroke-width="2.37097" stroke-linecap="round" stroke-linejoin="round"/>
<path d="M53.2402 44.2046C52.5758 44.1994 51.9278 43.9977 51.3778 43.6248C50.8279 43.2518 50.4007 42.7245 50.15 42.1091C49.8993 41.4937 49.8365 40.8179 49.9693 40.1669C50.1021 39.5159 50.4248 38.9187 50.8965 38.4508C51.3682 37.9828 51.9679 37.6649 52.6199 37.5373C53.272 37.4096 53.9473 37.4779 54.5606 37.7335C55.174 37.989 55.6979 38.4204 56.0665 38.9733C56.435 39.5262 56.6316 40.1758 56.6315 40.8403C56.6274 41.736 56.268 42.5934 55.6321 43.2243C54.9962 43.8551 54.1359 44.2077 53.2402 44.2046Z" stroke="white" stroke-width="2.37097" stroke-linecap="round" stroke-linejoin="round"/>
<path d="M57.7375 2.12891C55.1445 5.71421 49.406 8.21637 42.7093 8.21637C36.0127 8.21637 30.2749 5.71421 27.6819 2.12891L2.56364 14.5808C2.07436 14.8271 1.70212 15.2567 1.52787 15.776C1.35362 16.2954 1.39146 16.8625 1.63315 17.3541L9.01239 32.1228C9.25872 32.6121 9.68831 32.9843 10.2077 33.1584C10.7271 33.3325 11.2942 33.2945 11.7857 33.0525L19.0857 29.4796C19.401 29.3274 19.7497 29.2576 20.0993 29.2769C20.4489 29.2961 20.7879 29.4036 21.0846 29.5895C21.3813 29.7753 21.626 30.0333 21.7959 30.3394C21.9658 30.6455 22.0553 30.9897 22.056 31.3398V64.0561C22.0551 64.5977 22.1609 65.1343 22.3676 65.6349C22.5742 66.1356 22.8776 66.5906 23.2603 66.9738C23.6431 67.3571 24.0976 67.6611 24.598 67.8685C25.0984 68.0758 25.6347 68.1825 26.1763 68.1823H59.2088C60.3027 68.1823 61.3519 67.7485 62.1265 66.9762C62.901 66.2038 63.3377 65.1558 63.3408 64.0619V31.3224C63.341 30.7753 63.5584 30.2507 63.9453 29.8638C64.3321 29.4769 64.8568 29.2595 65.4039 29.2593C65.7164 29.2608 66.0246 29.3321 66.306 29.468L73.6053 33.0416C74.0934 33.2873 74.6591 33.3291 75.178 33.1579C75.697 32.9867 76.1267 32.6165 76.3728 32.1286L76.3786 32.1111L83.7746 17.3541C84.0205 16.8657 84.063 16.2998 83.8928 15.7801C83.7227 15.2604 83.3537 14.8292 82.8666 14.5808H82.8557L64.4552 5.45397L63.6992 6.37283C60.0732 11.3888 52.0484 14.8854 42.6839 14.8854C35.9909 14.8854 29.9899 13.1007 25.7845 10.254" stroke="white" stroke-width="2.37097" stroke-miterlimit="10"/>
</svg>
