<svg width="70" height="68" viewBox="0 0 70 68" fill="none" xmlns="http://www.w3.org/2000/svg">
<path d="M26.9281 25.7895L43.0561 10.5199M27.1124 17.5587L10.8324 3.3286C9.72535 2.55608 8.37948 2.19403 7.03031 2.30582C5.68113 2.41761 4.4146 2.99613 3.45238 3.94011C2.49016 4.88409 1.89356 6.1334 1.767 7.46938C1.64043 8.80536 1.99195 10.1429 2.76005 11.2479L20.0207 31.4344C20.0207 31.4344 20.1774 31.6262 20.4364 31.9276C17.3204 34.8688 8.90622 42.8055 8.90622 42.8055C7.5179 44.1226 6.48221 45.7615 5.89258 47.5745C5.89258 47.5745 0.823774 65.3038 1.61635 66.0072C2.40063 66.9471 20.5092 62.7728 20.5092 62.7728C22.3669 62.2816 24.0693 61.333 25.4582 60.0152L36.6731 49.4195C36.6731 49.5639 36.6731 49.7182 36.6805 49.8507C36.8786 56.5679 41.7069 60.3604 49.3838 61.6438C57.0608 62.9271 67.2058 61.3561 68.0214 59.194C68.6794 57.4585 66.721 56.5268 64.4594 54.943C63.5239 54.2787 62.7574 53.4077 62.2206 52.3989C61.6838 51.39 61.3913 50.2712 61.3665 49.1309C61.2492 46.0429 59.9591 43.1129 57.7544 40.9279C55.5498 38.7428 52.5935 37.4641 49.4779 37.3478L56.6304 30.5968L66.1137 21.6362C66.9093 20.8865 67.5479 19.9887 67.9929 18.9941C68.4379 17.9995 68.6807 16.9276 68.7072 15.8399C68.7337 14.7522 68.5436 13.67 68.1476 12.6553C67.7515 11.6405 67.1575 10.7131 66.3994 9.9262L61.3859 4.70146C60.6285 3.91297 59.7217 3.28014 58.7175 2.83914C57.7132 2.39814 56.6311 2.15762 55.533 2.13132C54.4349 2.10503 53.3423 2.29347 52.3177 2.68588C51.2932 3.0783 50.3566 3.66698 49.5617 4.4183L43.0921 10.5291L54.1329 22.0107" stroke="white" stroke-width="2.37097" stroke-linejoin="round"/>
</svg>
