<svg width="117" height="64" viewBox="0 0 117 64" fill="none" xmlns="http://www.w3.org/2000/svg">
<path d="M75.7782 28.7011C75.7801 30.4969 75.4284 32.2755 74.7431 33.9353C74.0579 35.5951 73.0525 37.1035 71.7844 38.3744C70.5163 39.6453 69.0104 40.6539 67.3526 41.3423C65.6949 42.0308 63.9178 42.3858 62.1229 42.387H62.1038C59.9567 42.3856 57.8402 41.8779 55.9259 40.9049C54.0117 39.9319 52.3536 38.5211 51.0864 36.787C49.8191 35.0529 48.9783 33.0443 48.6322 30.9242C48.2861 28.804 48.4445 26.6322 49.0944 24.5848C49.7443 22.5373 50.8675 20.672 52.3729 19.1403C53.8782 17.6085 55.7233 16.4533 57.7584 15.7686C59.7935 15.0838 61.9613 14.8887 64.0859 15.1991C66.2105 15.5095 68.232 16.3166 69.9864 17.555" stroke="white" stroke-width="2.37097" stroke-miterlimit="10"/>
<path d="M90.4178 22.1213C88.7571 24.7938 88.0701 27.9581 88.4729 31.079C88.9558 34.4179 90.6353 37.4674 93.1985 39.6594C95.7616 41.8515 99.0338 43.0367 102.405 42.9943C105.034 43.0117 107.606 42.238 109.789 40.7734C111.972 39.3089 113.664 37.2214 114.646 34.7821C115.533 32.6929 115.889 30.4165 115.683 28.156C115.476 25.8955 114.713 23.7214 113.462 21.8279C112.211 19.9344 110.51 18.3804 108.512 17.3049C106.514 16.2293 104.281 15.6656 102.013 15.6641H83.3948C81.3756 15.6635 79.4388 16.4654 78.0104 17.8934C76.582 19.3214 75.7791 21.2586 75.7782 23.2789L75.7704 48.3601C75.7729 51.9873 74.3352 55.467 71.7735 58.0336C69.2117 60.6002 65.7359 62.0435 62.1105 62.046C58.4852 62.0485 55.0073 60.6101 52.442 58.047C49.8768 55.484 48.4342 52.0064 48.4316 48.3792" stroke="white" stroke-width="2.37097" stroke-miterlimit="10"/>
<path d="M21.0892 35.6353C19.2736 32.5075 18.7707 28.7873 19.6906 25.2893C20.6104 21.7913 22.8781 18.8005 25.9971 16.9716C29.1161 15.1427 32.8324 14.6248 36.3322 15.5313C39.832 16.4377 42.8303 18.6947 44.6707 21.808L44.6796 21.8248C45.9082 23.9291 46.5522 26.3236 46.5451 28.7606C46.5379 31.1975 45.8798 33.5883 44.639 35.6853C43.3981 37.7823 41.6195 39.5093 39.4874 40.6876C37.3553 41.8658 34.9472 42.4525 32.5124 42.3867H14.3502C10.9724 42.3835 7.73401 41.0393 5.3459 38.6494C2.9578 36.2594 1.61517 33.019 1.61279 29.6395V0.822754" stroke="white" stroke-width="2.37097" stroke-miterlimit="10"/>
</svg>
