<svg width="123" height="34" viewBox="0 0 123 34" fill="none" xmlns="http://www.w3.org/2000/svg">
<path d="M46.5158 27.4747C45.5651 27.4899 44.6225 27.2979 43.7535 26.9119C42.8845 26.5259 42.11 25.9553 41.4838 25.2397C40.098 23.6846 39.3664 21.6543 39.4418 19.5727C39.3714 17.4986 40.097 15.4761 41.4698 13.9197C42.104 13.1937 42.89 12.616 43.7722 12.2274C44.6543 11.8387 45.6111 11.6487 46.5748 11.6707C47.4939 11.6692 48.4006 11.8822 49.2228 12.2927C50.0068 12.6605 50.6766 13.2338 51.1608 13.9517V6.10571H55.0088V27.1197H51.3988V24.9587C50.912 25.7768 50.1826 26.423 49.3118 26.8077C48.4402 27.2367 47.4833 27.4643 46.5118 27.4737M47.3118 15.1027C46.7794 15.0964 46.2518 15.2041 45.7643 15.4185C45.2769 15.6329 44.841 15.949 44.4858 16.3457C43.689 17.2163 43.2685 18.3665 43.3158 19.5457C43.2679 20.7373 43.6878 21.9005 44.4858 22.7867C44.8442 23.1816 45.281 23.4973 45.7684 23.7139C46.2557 23.9305 46.7828 24.043 47.316 24.0445C47.8493 24.0459 48.377 23.9361 48.8654 23.7221C49.3539 23.5081 49.7923 23.1947 50.1528 22.8017C50.9469 21.9081 51.3612 20.74 51.3078 19.5457C51.3596 18.3649 50.9447 17.2112 50.1528 16.3337C49.794 15.9385 49.355 15.6245 48.865 15.4128C48.3751 15.201 47.8455 15.0963 47.3118 15.1057" fill="white"/>
<path d="M59.3526 25.2379C58.6017 24.5093 58.0101 23.6329 57.6152 22.664C57.2203 21.6951 57.0308 20.6548 57.0586 19.6089C57.0301 18.5676 57.2092 17.531 57.5854 16.5596C57.9615 15.5882 58.5272 14.7014 59.2496 13.9509C59.96 13.2031 60.82 12.6132 61.7734 12.2197C62.7269 11.8262 63.7525 11.6378 64.7836 11.6669C65.7286 11.6284 66.6715 11.7834 67.5545 12.1224C68.4375 12.4613 69.242 12.977 69.9186 13.6379C70.5714 14.2966 71.0827 15.0817 71.4211 15.9451C71.7595 16.8086 71.9179 17.732 71.8866 18.6589C71.8746 19.2876 71.7948 19.9132 71.6486 20.5249H61.0546C61.0886 21.0462 61.2344 21.554 61.482 22.014C61.7296 22.474 62.0732 22.8754 62.4896 23.1909C63.3564 23.8317 64.412 24.1652 65.4896 24.1389C66.2331 24.1587 66.9721 24.0182 67.6565 23.727C68.3409 23.4357 68.9545 23.0005 69.4556 22.4509L71.5866 24.9979C70.7574 25.8071 69.7759 26.4437 68.699 26.871C67.622 27.2982 66.471 27.5076 65.3126 27.4869C64.2183 27.5314 63.1262 27.3551 62.1015 26.9683C61.0768 26.5816 60.1406 25.9924 59.3486 25.2359M64.7486 14.8979C63.8551 14.8732 62.9811 15.1615 62.2776 15.7129C61.595 16.2589 61.154 17.051 61.0496 17.9189H68.1236V17.8899C68.1013 17.474 67.9953 17.0669 67.8122 16.6929C67.629 16.3188 67.3724 15.9855 67.0576 15.7129C66.4154 15.1654 65.5922 14.875 64.7486 14.8979Z" fill="white"/>
<path d="M72.644 24.0818L75.244 22.1568C75.5942 22.8146 76.1134 23.3671 76.7481 23.7574C77.3828 24.1478 78.1101 24.362 78.855 24.3778C79.4338 24.4073 80.0102 24.2849 80.527 24.0228C80.7065 23.937 80.8585 23.8028 80.9659 23.6353C81.0733 23.4678 81.1318 23.2738 81.135 23.0748C81.1348 22.8499 81.0742 22.6292 80.9595 22.4357C80.8448 22.2422 80.6803 22.083 80.483 21.9748C79.6549 21.5316 78.7838 21.1741 77.883 20.9078C76.5701 20.5401 75.3495 19.8995 74.301 19.0278C73.9163 18.6611 73.6143 18.2164 73.4153 17.7235C73.2163 17.2306 73.1248 16.7009 73.147 16.1698C73.1425 15.5363 73.2924 14.9112 73.5837 14.3486C73.875 13.7859 74.299 13.3028 74.819 12.9408C75.899 12.1972 77.1611 11.7616 78.4699 11.6807C79.7786 11.5999 81.0847 11.8768 82.248 12.4818C83.1764 12.9796 83.9405 13.7358 84.448 14.6588L81.882 16.5288C81.5968 15.9853 81.1665 15.5314 80.6388 15.2177C80.1111 14.904 79.5068 14.7427 78.893 14.7518C78.3584 14.7318 77.8291 14.8654 77.368 15.1368C77.186 15.235 77.0336 15.3802 76.9268 15.5573C76.82 15.7345 76.7628 15.937 76.761 16.1438C76.7752 16.3513 76.8444 16.5513 76.9614 16.7231C77.0785 16.895 77.2392 17.0326 77.427 17.1218C78.2165 17.5518 79.0436 17.9086 79.898 18.1878C81.2205 18.6297 82.4641 19.2795 83.582 20.1128C83.9828 20.4711 84.2964 20.9162 84.499 21.4141C84.7016 21.912 84.7878 22.4496 84.751 22.9858C84.7536 23.6137 84.6059 24.2331 84.3203 24.7922C84.0346 25.3513 83.6193 25.834 83.109 26.1998C81.8812 27.1009 80.3825 27.5557 78.861 27.4888C77.567 27.5064 76.2895 27.1968 75.147 26.5888C74.0771 26.0316 73.2043 25.1588 72.647 24.0888" fill="white"/>
<path d="M87.0389 9.19876C86.8321 8.99733 86.6688 8.75554 86.5592 8.4884C86.4496 8.22125 86.3961 7.93444 86.4019 7.64576C86.3952 7.35889 86.4484 7.07377 86.5581 6.80861C86.6678 6.54345 86.8315 6.30407 87.0389 6.10576C87.4666 5.70691 88.0296 5.48511 88.6144 5.48511C89.1992 5.48511 89.7623 5.70691 90.1899 6.10576C90.4009 6.30202 90.568 6.5407 90.6802 6.80611C90.7924 7.07153 90.8472 7.35767 90.8409 7.64576C90.8463 7.93565 90.7912 8.22347 90.6791 8.49087C90.567 8.75826 90.4004 8.99935 90.1899 9.19876C89.7671 9.60709 89.2022 9.83531 88.6144 9.83531C88.0266 9.83531 87.4618 9.60709 87.0389 9.19876ZM86.7279 12.0248H90.5759V27.1188H86.7279V12.0248Z" fill="white"/>
<path d="M92.3188 29.2629C92.3188 27.9215 93.1282 26.8955 94.7468 26.1849C94.3976 25.9452 94.114 25.6218 93.9218 25.2444C93.7297 24.8669 93.6351 24.4473 93.6468 24.0239C93.6472 23.4971 93.7571 22.9762 93.9696 22.4942C94.182 22.0121 94.4923 21.5796 94.8808 21.2239C94.258 20.7727 93.7462 20.1854 93.3843 19.5068C93.0224 18.8282 92.8199 18.076 92.7922 17.3074C92.7646 16.5388 92.9124 15.774 93.2246 15.0711C93.5368 14.3682 94.0051 13.7457 94.5938 13.2509C95.8173 12.1973 97.3898 11.6378 99.0038 11.6819C99.719 11.6799 100.429 11.8003 101.104 12.0379H108.62V14.9969H104.72C105.072 15.6404 105.255 16.3631 105.252 17.0969C105.26 17.8385 105.101 18.5725 104.786 19.2438C104.471 19.9152 104.008 20.5066 103.432 20.9739C102.192 22.0294 100.605 22.5883 98.9778 22.5429C98.5914 22.5432 98.2055 22.5132 97.8238 22.4529C97.3298 22.7095 97.0832 23.0255 97.0838 23.4009C97.0809 23.5309 97.1122 23.6595 97.1745 23.7737C97.2368 23.888 97.3279 23.9839 97.4388 24.0519C97.6851 24.2123 97.974 24.2946 98.2678 24.2879H102.06C103.409 24.2249 104.734 24.6562 105.788 25.5009C106.29 25.9177 106.68 26.4525 106.924 27.0574C107.168 27.6622 107.259 28.3183 107.187 28.9666C107.115 29.6149 106.883 30.2353 106.513 30.772C106.142 31.3087 105.644 31.7451 105.063 32.0419C103.397 32.8947 101.561 33.359 99.6899 33.3999C97.8194 33.4407 95.9639 33.0571 94.2628 32.2779C93.6898 32.0064 93.2043 31.5797 92.8616 31.0463C92.5188 30.5128 92.3326 29.8939 92.3238 29.2599M96.0828 28.7599C96.0828 29.2525 96.3982 29.6422 97.0288 29.9289C97.8188 30.2441 98.666 30.3902 99.5158 30.3579C100.507 30.403 101.498 30.2521 102.431 29.9139C103.112 29.6185 103.453 29.2142 103.452 28.7009C103.457 28.4962 103.407 28.2939 103.309 28.1145C103.21 27.9352 103.065 27.7852 102.89 27.6799C102.473 27.4213 101.989 27.2925 101.499 27.3099H97.2988C96.4895 27.6432 96.0852 28.1265 96.0858 28.7599M97.0778 15.3529C96.8273 15.5688 96.6271 15.8371 96.4913 16.1387C96.3555 16.4404 96.2874 16.7681 96.2918 17.0989C96.2883 17.4317 96.3567 17.7613 96.4924 18.0653C96.628 18.3692 96.8277 18.6402 97.0778 18.8599C97.6043 19.3456 98.2998 19.6062 99.0158 19.5859C99.736 19.6041 100.435 19.3441 100.969 18.8599C101.222 18.6424 101.426 18.3721 101.564 18.0679C101.702 17.7637 101.772 17.433 101.769 17.0989C101.773 16.7668 101.703 16.438 101.565 16.1361C101.426 15.8342 101.223 15.5667 100.969 15.3529C100.431 14.8777 99.7332 14.624 99.0158 14.6429C98.3027 14.6221 97.6088 14.8763 97.0778 15.3529Z" fill="white"/>
<path d="M108.294 27.1327V12.0257H109.922C110.194 12.0258 110.464 12.0796 110.715 12.1839C110.967 12.2882 111.195 12.441 111.387 12.6336C111.58 12.8262 111.732 13.0548 111.837 13.3063C111.941 13.5579 111.994 13.8275 111.994 14.0997C112.471 13.3077 113.157 12.6622 113.977 12.2336C114.797 11.8051 115.718 11.61 116.641 11.6697C117.43 11.6342 118.218 11.7663 118.953 12.0575C119.688 12.3486 120.352 12.7921 120.903 13.3587C122.022 14.6293 122.597 16.2891 122.503 17.9797V27.1327H118.655V18.4237C118.682 17.9809 118.621 17.5371 118.477 17.1178C118.332 16.6984 118.106 16.3117 117.812 15.9797C117.482 15.6716 117.092 15.4357 116.665 15.2871C116.239 15.1385 115.787 15.0804 115.337 15.1167C114.887 15.1529 114.45 15.2826 114.053 15.4975C113.656 15.7124 113.308 16.0078 113.032 16.3647C112.43 17.2387 112.119 18.2806 112.144 19.3417V27.1327H108.294Z" fill="white"/>
<path d="M0 6.08887V10.2139H10.2L1.836 27.1459H6.436L13.905 12.0219C14.2147 11.3951 14.3594 10.6997 14.3255 10.0014C14.2915 9.30307 14.0801 8.62497 13.7111 8.03115C13.3421 7.43733 12.8278 6.94742 12.2168 6.60774C11.6057 6.26805 10.9181 6.08981 10.219 6.08987L0 6.08887Z" fill="#FF5F6B"/>
<path d="M30.9942 14.5529H26.6372C26.062 14.5529 25.5103 14.3244 25.1035 13.9176C24.6967 13.5108 24.4682 12.9591 24.4682 12.3839C24.4682 11.8086 24.6967 11.2569 25.1035 10.8502C25.5103 10.4434 26.062 10.2149 26.6372 10.2149H37.6572V6.08789H26.6372C25.834 6.08744 25.0382 6.24158 24.2932 6.54189L20.5732 14.0749C20.9449 15.3975 21.7384 16.5626 22.8329 17.3929C23.9275 18.2233 25.2633 18.6734 26.6372 18.6749H30.9982C31.5735 18.6749 32.1252 18.9034 32.5319 19.3102C32.9387 19.7169 33.1672 20.2686 33.1672 20.8439C33.1672 21.4191 32.9387 21.9708 32.5319 22.3776C32.1252 22.7844 31.5735 23.0129 30.9982 23.0129L16.1642 22.9969L14.1162 27.1449H30.9942C31.8399 27.175 32.683 27.0345 33.4732 26.7317C34.2634 26.4289 34.9844 25.9699 35.5934 25.3823C36.2023 24.7947 36.6866 24.0904 37.0174 23.3116C37.3482 22.5327 37.5187 21.6951 37.5187 20.8489C37.5187 20.0027 37.3482 19.1651 37.0174 18.3862C36.6866 17.6073 36.2023 16.9031 35.5934 16.3155C34.9844 15.7278 34.2634 15.2689 33.4732 14.9661C32.683 14.6633 31.8399 14.5227 30.9942 14.5529Z" fill="#FF5F6B"/>
<path d="M5.43604 0.575802V4.7008H19.052L7.97604 27.1448H12.576L22.764 6.5128C23.0742 5.88497 23.2192 5.18841 23.1852 4.48896C23.1512 3.78951 22.9394 3.11029 22.5698 2.51548C22.2002 1.92067 21.6851 1.42994 21.0731 1.08966C20.461 0.749383 19.7723 0.570803 19.072 0.570801L5.43604 0.575802Z" fill="#FF5F6B"/>
</svg>
