<svg width="150" height="41" viewBox="0 0 150 41" fill="none" xmlns="http://www.w3.org/2000/svg">
<path d="M57.6376 33.0351C56.49 33.0533 55.3522 32.8211 54.3034 32.3548C53.2546 31.8885 52.32 31.1993 51.5646 30.3351C49.8923 28.4584 49.0096 26.0082 49.1006 23.4961C49.0154 20.9928 49.8909 18.5517 51.5476 16.6731C52.3131 15.7967 53.2618 15.0992 54.3266 14.6301C55.3914 14.1609 56.5463 13.9315 57.7096 13.9581C58.8202 13.9555 59.916 14.2123 60.9096 14.7081C61.8556 15.1514 62.6639 15.8425 63.2486 16.7081V7.24512H67.8937V32.6071H63.5316V29.9991C62.9441 30.9866 62.0637 31.7667 61.0126 32.2311C59.9617 32.7469 58.8083 33.0203 57.6376 33.0311M58.6026 18.1001C57.96 18.0924 57.3231 18.2223 56.7348 18.481C56.1465 18.7397 55.6203 19.1213 55.1916 19.6001C54.2313 20.6496 53.7239 22.0357 53.7796 23.4571C53.7212 24.8971 54.2288 26.3027 55.1936 27.3731C55.6262 27.8495 56.1534 28.2305 56.7415 28.4918C57.3296 28.7531 57.9657 28.8889 58.6092 28.8906C59.2527 28.8923 59.8895 28.7598 60.4789 28.5016C61.0684 28.2435 61.5975 27.8652 62.0326 27.3911C62.991 26.3124 63.4911 24.9026 63.4266 23.4611C63.4887 22.0362 62.9881 20.6441 62.0326 19.5851C61.5996 19.1082 61.0696 18.7293 60.4783 18.4737C59.8869 18.2181 59.2478 18.0918 58.6036 18.1031" fill="#3D3D3F"/>
<path d="M73.1187 30.3207C72.2126 29.4424 71.4988 28.3856 71.0223 27.2172C70.5458 26.0488 70.3172 24.7941 70.3507 23.5327C70.3164 22.2768 70.5325 21.0267 70.9864 19.8553C71.4404 18.6838 72.1231 17.6145 72.9947 16.7097C73.8529 15.8086 74.891 15.098 76.0417 14.6242C77.1923 14.1505 78.4298 13.9241 79.6737 13.9597C80.8144 13.9128 81.9528 14.0994 83.0189 14.508C84.085 14.9165 85.0564 15.5385 85.8737 16.3357C86.6616 17.1296 87.2788 18.0764 87.6872 19.1177C88.0956 20.159 88.2867 21.2728 88.2487 22.3907C88.2343 23.1488 88.1381 23.9032 87.9617 24.6407H75.1737C75.2144 25.2694 75.3898 25.882 75.6882 26.4369C75.9865 26.9918 76.4007 27.476 76.9027 27.8567C77.9505 28.6306 79.2265 29.0328 80.5287 28.9997C81.4258 29.0236 82.3176 28.8541 83.1434 28.5028C83.9692 28.1515 84.7097 27.6266 85.3147 26.9637L87.8867 30.0347C86.8854 31.0105 85.7005 31.7781 84.4006 32.293C83.1007 32.808 81.7116 33.0601 80.3137 33.0347C78.9928 33.0887 77.6745 32.8762 76.4375 32.4097C75.2005 31.9432 74.0701 31.2324 73.1137 30.3197M79.6387 17.8567C78.5605 17.827 77.5059 18.1747 76.6567 18.8397C75.8327 19.4976 75.3001 20.4529 75.1737 21.4997H83.7107V21.4567C83.6834 20.9552 83.5554 20.4643 83.3342 20.0133C83.1131 19.5623 82.8035 19.1604 82.4237 18.8317C81.6486 18.1715 80.6565 17.8213 79.6387 17.8487" fill="#3D3D3F"/>
<path d="M89.151 28.9278L92.289 26.6068C92.712 27.4001 93.3387 28.0664 94.1047 28.5371C94.8706 29.0077 95.7482 29.2658 96.647 29.2848C97.3454 29.3204 98.0411 29.1729 98.665 28.8568C98.8813 28.7533 99.0645 28.5915 99.194 28.3896C99.3235 28.1877 99.3941 27.9537 99.398 27.7138C99.3969 27.4433 99.3233 27.1779 99.1849 26.9454C99.0465 26.7129 98.8483 26.5218 98.611 26.3918C97.6099 25.8569 96.5568 25.4256 95.468 25.1048C93.8836 24.6615 92.4105 23.889 91.145 22.8378C90.6806 22.3957 90.3161 21.8594 90.0759 21.2649C89.8356 20.6704 89.7252 20.0315 89.752 19.3908C89.7466 18.6268 89.9275 17.8729 90.2791 17.1946C90.6308 16.5162 91.1425 15.9338 91.77 15.4978C93.0737 14.6011 94.5969 14.0759 96.1763 13.9785C97.7557 13.881 99.3319 14.2151 100.736 14.9448C101.858 15.5441 102.782 16.4559 103.396 17.5698L100.289 19.8198C99.9452 19.1651 99.4269 18.6182 98.7915 18.2398C98.1562 17.8614 97.4284 17.6662 96.689 17.6758C96.0439 17.6523 95.4054 17.8136 94.849 18.1408C94.6295 18.2591 94.4458 18.4342 94.317 18.6478C94.1882 18.8613 94.1192 19.1055 94.117 19.3548C94.1336 19.6048 94.2165 19.8458 94.3571 20.0532C94.4977 20.2606 94.6909 20.4268 94.917 20.5348C95.8697 21.0535 96.8679 21.4839 97.899 21.8208C99.4952 22.3537 100.996 23.1376 102.346 24.1428C102.829 24.5746 103.208 25.1112 103.452 25.7115C103.697 26.3119 103.801 26.9601 103.757 27.6068C103.76 28.3642 103.582 29.1113 103.237 29.7856C102.892 30.4599 102.391 31.0419 101.775 31.4828C100.293 32.5694 98.484 33.1176 96.648 33.0368C95.086 33.0566 93.5444 32.6816 92.166 31.9468C90.8737 31.2741 89.8197 30.2201 89.147 28.9278" fill="#3D3D3F"/>
<path d="M106.518 10.9767C106.269 10.7334 106.072 10.4416 105.94 10.1192C105.808 9.79687 105.744 9.4509 105.752 9.10274C105.744 8.75661 105.808 8.41261 105.94 8.0927C106.073 7.77279 106.27 7.48399 106.521 7.24474C107.037 6.76423 107.716 6.49707 108.421 6.49707C109.126 6.49707 109.805 6.76423 110.321 7.24474C110.575 7.48149 110.777 7.76943 110.912 8.08965C111.048 8.40987 111.114 8.75513 111.107 9.10274C111.113 9.45257 111.046 9.7999 110.911 10.1226C110.776 10.4452 110.575 10.7361 110.321 10.9767C109.81 11.4687 109.129 11.7437 108.421 11.7437C107.712 11.7437 107.031 11.4687 106.521 10.9767M106.142 14.3827H110.786V32.6047H106.142V14.3827Z" fill="#3D3D3F"/>
<path d="M112.882 35.178C112.882 33.5593 113.859 32.321 115.812 31.463C115.392 31.173 115.05 30.7825 114.819 30.327C114.589 29.8715 114.475 29.3654 114.49 28.855C114.49 28.2192 114.623 27.5905 114.88 27.0087C115.136 26.427 115.511 25.905 115.98 25.476C115.228 24.9314 114.61 24.2226 114.174 23.4035C113.737 22.5844 113.492 21.6766 113.459 20.7489C113.426 19.8212 113.604 18.8981 113.981 18.0497C114.358 17.2014 114.923 16.4501 115.634 15.853C117.11 14.5813 119.008 13.906 120.956 13.959C121.82 13.9562 122.677 14.1013 123.492 14.388H132.563V17.957H127.85C128.276 18.7345 128.497 19.6075 128.492 20.494C128.502 21.3893 128.309 22.2753 127.928 23.0856C127.547 23.8959 126.988 24.6095 126.292 25.173C124.796 26.4472 122.88 27.1219 120.916 27.067C120.449 27.0676 119.984 27.0315 119.523 26.959C118.927 27.269 118.629 27.6503 118.63 28.103C118.627 28.2599 118.664 28.415 118.739 28.5529C118.814 28.6908 118.924 28.8067 119.058 28.889C119.355 29.0826 119.703 29.182 120.058 29.174H124.63C126.258 29.0978 127.858 29.6184 129.13 30.638C129.736 31.141 130.207 31.7866 130.501 32.5167C130.796 33.2467 130.905 34.0385 130.818 34.8211C130.732 35.6036 130.452 36.3523 130.005 37.0002C129.557 37.648 128.956 38.1747 128.255 38.533C126.245 39.5626 124.027 40.1232 121.769 40.1726C119.511 40.2219 117.271 39.7588 115.218 38.818C114.526 38.4902 113.94 37.9752 113.527 37.3312C113.113 36.6873 112.888 35.9402 112.878 35.175M117.415 34.568C117.415 35.1626 117.796 35.6329 118.557 35.979C119.51 36.3593 120.532 36.5357 121.557 36.497C122.753 36.5513 123.949 36.3692 125.075 35.961C125.897 35.6043 126.308 35.1163 126.307 34.497C126.313 34.2499 126.253 34.0059 126.133 33.7895C126.014 33.5731 125.84 33.3921 125.628 33.265C125.125 32.9531 124.54 32.7979 123.949 32.819H118.883C117.906 33.2236 117.418 33.807 117.419 34.569M118.619 18.388C118.317 18.6488 118.075 18.9727 117.911 19.3368C117.747 19.701 117.665 20.0967 117.671 20.496C117.667 20.8975 117.749 21.2953 117.913 21.662C118.076 22.0288 118.317 22.3559 118.619 22.621C119.254 23.2072 120.094 23.5216 120.958 23.497C121.827 23.5192 122.671 23.2055 123.315 22.621C123.621 22.3584 123.865 22.0321 124.032 21.6651C124.198 21.298 124.283 20.899 124.279 20.496C124.284 20.0952 124.2 19.6983 124.033 19.3338C123.867 18.9693 123.621 18.6463 123.315 18.388C122.666 17.8145 121.824 17.5082 120.958 17.531C120.097 17.5059 119.26 17.8127 118.619 18.388Z" fill="#3D3D3F"/>
<path d="M132.152 32.607V14.389H134.113C134.776 14.389 135.412 14.6524 135.881 15.1212C136.349 15.5901 136.613 16.226 136.613 16.889C137.19 15.9339 138.018 15.1555 139.007 14.6388C139.996 14.1221 141.107 13.887 142.221 13.959C143.173 13.9161 144.124 14.0754 145.011 14.4265C145.898 14.7776 146.7 15.3125 147.365 15.996C148.715 17.5279 149.408 19.5294 149.294 21.568V32.607H144.65V22.107C144.682 21.573 144.609 21.0378 144.434 20.5321C144.26 20.0264 143.987 19.5601 143.632 19.16C143.234 18.7884 142.762 18.5039 142.248 18.3248C141.734 18.1456 141.188 18.0757 140.645 18.1194C140.102 18.1632 139.574 18.3197 139.095 18.5789C138.616 18.8381 138.196 19.1944 137.863 19.625C137.136 20.6787 136.761 21.9352 136.791 23.215V32.607H132.152Z" fill="#3D3D3F"/>
<path d="M0.552734 7.21875V12.2277H12.9347L2.77974 32.7867H8.36774L17.4367 14.4217C17.812 13.6608 17.9872 12.8167 17.9456 11.9692C17.904 11.1217 17.6471 10.2988 17.1991 9.57817C16.7512 8.85756 16.1269 8.26302 15.3853 7.85072C14.6437 7.43841 13.8092 7.22195 12.9607 7.22175L0.552734 7.21875Z" fill="#FF5F6B"/>
<path d="M38.1869 17.4978H32.8919C32.1933 17.4978 31.5233 17.2202 31.0293 16.7263C30.5354 16.2323 30.2579 15.5623 30.2579 14.8638C30.2579 14.1652 30.5354 13.4952 31.0293 13.0012C31.5233 12.5073 32.1933 12.2298 32.8919 12.2298H46.2769V7.21875H32.8929C31.9176 7.21812 30.9514 7.40519 30.0469 7.76975L25.5299 16.9168C25.9802 18.5238 26.9432 19.9396 28.2723 20.9489C29.6015 21.9582 31.2239 22.5056 32.8929 22.5078H38.1879C38.8864 22.5078 39.5564 22.7853 40.0504 23.2792C40.5443 23.7732 40.8219 24.4432 40.8219 25.1418C40.8219 25.8403 40.5443 26.5103 40.0504 27.0043C39.5564 27.4982 38.8864 27.7758 38.1879 27.7758L20.1799 27.7508L17.6938 32.7867H38.1879C40.2154 32.7867 42.16 31.9813 43.5937 30.5476C45.0274 29.1139 45.8329 27.1693 45.8329 25.1418C45.8329 23.1142 45.0274 21.1696 43.5937 19.7359C42.16 18.3022 40.2154 17.4968 38.1879 17.4968L38.1869 17.4978Z" fill="#FF5F6B"/>
<path d="M7.15381 0.525879V5.53488H23.6868L10.2378 32.7879H15.8258L28.1938 7.74088C28.5705 6.97855 28.7466 6.13274 28.7053 5.28341C28.6641 4.43409 28.4069 3.60931 27.9582 2.88705C27.5094 2.1648 26.8838 1.56893 26.1406 1.15577C25.3974 0.742606 24.5611 0.525812 23.7108 0.525879H7.15381Z" fill="#FF5F6B"/>
</svg>
