<svg width="64" height="71" viewBox="0 0 64 71" fill="none" xmlns="http://www.w3.org/2000/svg">
<path d="M17.8224 10.4514H51.1784C51.3926 10.4316 51.6086 10.4567 51.8125 10.5252C52.0165 10.5936 52.2039 10.7038 52.3629 10.8488C52.5218 10.9937 52.6488 11.1703 52.7357 11.3671C52.8226 11.5639 52.8674 11.7766 52.8674 11.9918C52.8674 12.2069 52.8226 12.4197 52.7357 12.6165C52.6488 12.8133 52.5218 12.9898 52.3629 13.1348C52.2039 13.2797 52.0165 13.3899 51.8125 13.4584C51.6086 13.5268 51.3926 13.5519 51.1784 13.5322H17.8224C17.6082 13.5519 17.3922 13.5268 17.1882 13.4584C16.9842 13.3899 16.7968 13.2797 16.6378 13.1348C16.4789 12.9898 16.3519 12.8133 16.2651 12.6165C16.1782 12.4197 16.1333 12.2069 16.1333 11.9918C16.1333 11.7766 16.1782 11.5639 16.2651 11.3671C16.3519 11.1703 16.4789 10.9937 16.6378 10.8488C16.7968 10.7038 16.9842 10.5936 17.1882 10.5252C17.3922 10.4567 17.6082 10.4316 17.8224 10.4514Z" fill="white"/>
<path d="M62.73 12.0696V7.1692C62.73 5.81961 62.1939 4.5253 61.2396 3.57099C60.2853 2.61669 58.991 2.08057 57.6414 2.08057H6.55445C5.20486 2.08057 3.91055 2.61669 2.95624 3.57099C2.00194 4.5253 1.46582 5.81961 1.46582 7.1692V64.3843C1.46582 65.7339 2.00194 67.0282 2.95624 67.9825C3.91055 68.9368 5.20486 69.473 6.55445 69.473H57.6436C58.9932 69.473 60.2875 68.9368 61.2418 67.9825C62.1961 67.0282 62.7322 65.7339 62.7322 64.3843V20.5269H11.7005C11.414 20.5029 11.1295 20.5924 10.9083 20.7761C10.6871 20.9597 10.5469 21.2229 10.5178 21.509V55.7773C10.5469 56.0634 10.6871 56.3266 10.9083 56.5104C11.1295 56.6942 11.4139 56.7839 11.7005 56.7601H52.1188C52.4054 56.7841 52.69 56.6945 52.9112 56.5106C53.1324 56.3268 53.2726 56.0634 53.3015 55.7773V27.318" stroke="white" stroke-width="2.37097" stroke-linejoin="round"/>
<path d="M7.22999 7.41643C7.231 7.14448 7.31256 6.87893 7.46438 6.6533C7.6162 6.42767 7.83147 6.25208 8.08301 6.14871C8.33455 6.04533 8.61107 6.0188 8.87767 6.07248C9.14428 6.12615 9.389 6.25761 9.58094 6.45026C9.77289 6.64291 9.90345 6.88812 9.95614 7.15492C10.0088 7.42172 9.98127 7.69815 9.87697 7.94931C9.77267 8.20046 9.59629 8.41508 9.3701 8.56607C9.14391 8.71705 8.87806 8.79763 8.60611 8.79764C8.42496 8.79764 8.2456 8.76187 8.07831 8.6924C7.91102 8.62293 7.75909 8.52111 7.63124 8.39278C7.50339 8.26446 7.40213 8.11216 7.33328 7.94461C7.26442 7.77707 7.22932 7.59758 7.22999 7.41643Z" fill="white"/>
<path d="M10.6983 7.41643C10.6993 7.14448 10.7808 6.87893 10.9326 6.6533C11.0845 6.42767 11.2997 6.25208 11.5513 6.14871C11.8028 6.04533 12.0793 6.0188 12.3459 6.07248C12.6125 6.12615 12.8573 6.25761 13.0492 6.45026C13.2412 6.64291 13.3717 6.88812 13.4244 7.15492C13.4771 7.42172 13.4495 7.69815 13.3452 7.94931C13.2409 8.20046 13.0645 8.41508 12.8384 8.56607C12.6122 8.71705 12.3463 8.79763 12.0744 8.79764C11.8932 8.79764 11.7139 8.76187 11.5466 8.6924C11.3793 8.62293 11.2274 8.52111 11.0995 8.39278C10.9716 8.26446 10.8704 8.11216 10.8015 7.94461C10.7327 7.77707 10.6976 7.59758 10.6983 7.41643Z" fill="white"/>
<path d="M14.1704 7.41642C14.1714 7.14469 14.2529 6.87934 14.4045 6.65382C14.5561 6.4283 14.771 6.25271 15.0223 6.14919C15.2735 6.04566 15.5498 6.01884 15.8162 6.0721C16.0827 6.12536 16.3274 6.25632 16.5196 6.44846C16.7117 6.64061 16.8427 6.88534 16.8959 7.1518C16.9492 7.41827 16.9224 7.69454 16.8189 7.94578C16.7153 8.19702 16.5397 8.41199 16.3142 8.56359C16.0887 8.71518 15.8234 8.79662 15.5516 8.79763C15.3701 8.7983 15.1901 8.76303 15.0223 8.69386C14.8544 8.62468 14.7019 8.52297 14.5735 8.39458C14.4451 8.26619 14.3434 8.11366 14.2742 7.94578C14.205 7.7779 14.1697 7.59799 14.1704 7.41642Z" fill="white"/>
</svg>
